<svg xmlns="http://www.w3.org/2000/svg" fill="white" width="90px" class="size-6" viewBox="0 0 273.26 97.91" style="enable-background:new 0 0 273.26 97.91;">
<style type="text/css">
	.st0{fill-rule:evenodd;clip-rule:evenodd;fill:url(#SVGID_1_);}
	.st1{fill-rule:evenodd;clip-rule:evenodd;fill:url(#SVGID_2_);}
	.st2{fill-rule:evenodd;clip-rule:evenodd;fill:url(#SVGID_3_);}
	.st3{fill-rule:evenodd;clip-rule:evenodd;fill:url(#SVGID_4_);}
	.st4{fill-rule:evenodd;clip-rule:evenodd;fill:url(#SVGID_5_);}
	.st5{fill-rule:evenodd;clip-rule:evenodd;fill:url(#SVGID_6_);}
	.st6{fill-rule:evenodd;clip-rule:evenodd;fill:url(#SVGID_7_);}
</style>
<g>
	
		<linearGradient id="SVGID_1_" gradientUnits="userSpaceOnUse" x1="24134.3105" y1="-5782.0029" x2="23122.3633" y2="-5138.8179" gradientTransform="matrix(0.0283 0 0 -0.0283 -642.263 -90.7307)">
		<stop offset="0" style="stop-color:#4081C3"/>
		<stop offset="1" style="stop-color:#63B986"/>
	</linearGradient>
	<path class="st0" d="M7.14,36.98h16.53c6.99,0,10.26,3.22,13.26,8.41L48.54,65.5L31.87,94.37L3.59,45.39   C0.92,40.76,2.52,36.98,7.14,36.98z"/>
	
		<linearGradient id="SVGID_2_" gradientUnits="userSpaceOnUse" x1="28150.791" y1="-4929.4565" x2="29301.543" y2="-4929.4565" gradientTransform="matrix(0.0283 0 0 -0.0283 -642.263 -90.7307)">
		<stop offset="0" style="stop-color:#63B986"/>
		<stop offset="1" style="stop-color:#4081C3"/>
	</linearGradient>
	<path class="st1" d="M168.55,36.96c3.41,0,5.2,0,8.62,0c4.42,0,7.06,0.71,9.69,5.61l10.67,18.47h-29.11l0,0   c-4.95-0.02-8.61-1.15-11.51-6.53l-5.93-11.02c-0.48-0.89-0.71-1.75-0.72-2.53v-0.04c0-2.32,2-3.96,5.33-3.96h12.84v0L168.55,36.96   L168.55,36.96z"/>
	
		<linearGradient id="SVGID_3_" gradientUnits="userSpaceOnUse" x1="30713.1309" y1="-4353.9438" x2="29930.8672" y2="-3902.2671" gradientTransform="matrix(0.0283 0 0 -0.0283 -642.263 -90.7307)">
		<stop offset="0" style="stop-color:#4081C3"/>
		<stop offset="1" style="stop-color:#63B986"/>
	</linearGradient>
	<path class="st2" d="M214.41,48.37l-6.27-10.86L194.9,14.58l-1.01-1.76l0,0c-4.24-7.39-1.37-10.46,5.1-10.46h13.79   c4.62,0,9.17,1.32,13.25,8.4l5.05,8.74L214.41,48.37z"/>
	
		<linearGradient id="SVGID_4_" gradientUnits="userSpaceOnUse" x1="25286.6055" y1="-3600.9749" x2="25205.4219" y2="-6220.3052" gradientTransform="matrix(0.0283 0 0 -0.0283 -642.263 -90.7307)">
		<stop offset="0" style="stop-color:#234496"/>
		<stop offset="1" style="stop-color:#232C59"/>
	</linearGradient>
	<path class="st3" d="M109.94,2.3H93.4c-7.34,0-10.59,3.79-13.26,8.41l-28,48.5l-20.3,35.17h24.94c4.62,0,9.17-1.32,13.26-8.41   l43.45-75.26C116.16,6.08,114.56,2.3,109.94,2.3z"/>
	
		<linearGradient id="SVGID_5_" gradientUnits="userSpaceOnUse" x1="28032.2441" y1="-3744.1567" x2="28032.2441" y2="-6212.2622" gradientTransform="matrix(0.0283 0 0 -0.0283 -642.263 -90.7307)">
		<stop offset="0" style="stop-color:#234496"/>
		<stop offset="1" style="stop-color:#232C59"/>
	</linearGradient>
	<path class="st4" d="M153.24,26.39c-12.13,0-21.97,9.84-21.97,21.97c0,12.13,9.84,21.97,21.97,21.97c7.41,0,13.96-3.67,17.94-9.29   h18.56h0.09h7.7c-5.51,19.27-23.25,33.38-44.29,33.38c-25.44,0-46.06-20.62-46.06-46.06c0-27.95,22.01-46.06,48.58-46.06   c5.01,0,8.53,1.21,11.64,6.53l6.44,11.02c2.06,3.52-0.14,6.53-4.61,6.53H153.24L153.24,26.39z"/>
	
		<linearGradient id="SVGID_6_" gradientUnits="userSpaceOnUse" x1="32124.0859" y1="-4906.8145" x2="31048.7266" y2="-4906.8145" gradientTransform="matrix(0.0283 0 0 -0.0283 -642.263 -90.7307)">
		<stop offset="0" style="stop-color:#234496"/>
		<stop offset="1" style="stop-color:#232C59"/>
	</linearGradient>
	<path class="st5" d="M265.89,94.37h-16.53c-7.33,0-10.59-3.78-13.25-8.4l-5.05-8.74l0.92-1.6l0.2-0.34l0.2-0.34l0.2-0.35l1.19-2.07   l0.2-0.34l0.2-0.35l0.2-0.34l1.19-2.07l0.2-0.34l0.2-0.34l0.2-0.34l0.2-0.35l0.2-0.34l0.4-0.69l0.2-0.35l1.59-2.76l0.41-0.72   l0.16-0.28c8.39-14.55,8.22-14.85,0.31-28.54l-8.58-14.86l0,0l5.05-8.74c2.67-4.62,5.92-8.4,13.25-8.4h16.53   c4.62,0,6.22,3.78,3.55,8.4l-21.71,37.61l21.71,37.61C272.11,90.59,270.51,94.37,265.89,94.37L265.89,94.37z"/>
	
		<linearGradient id="SVGID_7_" gradientUnits="userSpaceOnUse" x1="30818.9434" y1="-5214.8633" x2="29296.9824" y2="-5214.6401" gradientTransform="matrix(0.0283 0 0 -0.0283 -642.263 -90.7307)">
		<stop offset="0" style="stop-color:#234496"/>
		<stop offset="1" style="stop-color:#232C59"/>
	</linearGradient>
	<path class="st6" d="M230.73,77.82l-0.23,0.4l-0.09,0.16l-0.12,0.2l-0.15,0.26L230,79.07l-0.16,0.28l-0.42,0.74l-0.04,0.07   l-0.25,0.43l-0.12,0.21l-0.05,0.09l-0.27,0.47l-0.08,0.13l-0.09,0.16l-0.19,0.33l-0.11,0.2l-0.14,0.24l-0.11,0.19l-0.15,0.26   l-0.18,0.32l-0.03,0.05l-0.18,0.32l-0.2,0.34l-0.2,0.34l-0.2,0.34l-0.2,0.35l-0.2,0.34l-0.2,0.34l-0.2,0.34v0   c-0.06,0.11-0.13,0.22-0.19,0.33l0,0c-0.06,0.11-0.13,0.21-0.19,0.32l0,0c-0.06,0.11-0.13,0.21-0.19,0.31l0,0   c-0.06,0.1-0.13,0.2-0.19,0.3l0,0c-0.06,0.1-0.13,0.2-0.19,0.3l0,0c-0.06,0.1-0.13,0.19-0.2,0.29l0,0   c-0.06,0.09-0.13,0.19-0.2,0.28l0,0c-0.06,0.09-0.13,0.18-0.2,0.27l0,0c-0.06,0.09-0.13,0.18-0.2,0.26l0,0   c-0.06,0.09-0.13,0.17-0.2,0.26l0,0c-0.07,0.09-0.13,0.17-0.2,0.25l0,0c-0.07,0.08-0.13,0.16-0.2,0.24l0,0   c-0.07,0.08-0.13,0.16-0.2,0.23l0,0c-0.07,0.08-0.13,0.15-0.2,0.23l0,0c-0.07,0.07-0.13,0.15-0.2,0.22l0,0   c-0.07,0.07-0.13,0.14-0.2,0.21l0,0c-0.07,0.07-0.13,0.14-0.2,0.21v0c-0.07,0.07-0.14,0.13-0.2,0.2l0,0   c-0.07,0.06-0.14,0.13-0.2,0.19l0,0c-0.07,0.06-0.13,0.13-0.2,0.19v0c-0.07,0.06-0.14,0.12-0.2,0.18l0,0   c-0.07,0.06-0.14,0.12-0.2,0.17l0,0c-0.07,0.06-0.14,0.11-0.21,0.17l0,0c-0.07,0.06-0.14,0.11-0.2,0.16v0   c-0.07,0.05-0.14,0.1-0.21,0.15l0,0c-0.07,0.05-0.14,0.1-0.21,0.15l0,0c-0.07,0.05-0.14,0.1-0.21,0.14l0,0   c-0.07,0.05-0.14,0.09-0.21,0.14l0,0c-0.07,0.04-0.14,0.09-0.21,0.13l0,0c-0.07,0.04-0.14,0.09-0.21,0.13l0,0   c-0.07,0.04-0.14,0.08-0.21,0.12v0c-0.07,0.04-0.14,0.08-0.21,0.12l0,0c-0.07,0.04-0.14,0.08-0.21,0.11l0,0   c-0.07,0.04-0.14,0.07-0.21,0.11l0,0c-0.07,0.03-0.14,0.07-0.21,0.1l0,0c-0.07,0.03-0.14,0.06-0.21,0.1l0,0   c-0.07,0.03-0.14,0.06-0.21,0.09l0,0c-0.07,0.03-0.14,0.06-0.21,0.09l0,0c-0.07,0.03-0.14,0.06-0.21,0.08v0   c-0.07,0.03-0.14,0.05-0.21,0.08l0,0c-0.07,0.03-0.14,0.05-0.21,0.07v0c-0.07,0.02-0.14,0.05-0.21,0.07l0,0   c-0.07,0.02-0.14,0.04-0.21,0.07l0,0c-0.07,0.02-0.14,0.04-0.21,0.06l0,0c-0.07,0.02-0.14,0.04-0.21,0.06l0,0   c-0.07,0.02-0.14,0.04-0.21,0.05l0,0c-0.07,0.02-0.14,0.03-0.21,0.05l0,0c-0.07,0.02-0.14,0.03-0.21,0.05l0,0   c-0.07,0.02-0.14,0.03-0.21,0.04l0,0c-0.07,0.01-0.14,0.03-0.21,0.04l0,0c-0.07,0.01-0.14,0.02-0.21,0.03l0,0   c-0.07,0.01-0.14,0.02-0.21,0.03l0,0c-0.07,0.01-0.14,0.02-0.21,0.03l0,0c-0.07,0.01-0.14,0.02-0.22,0.03l0,0   c-0.07,0.01-0.14,0.02-0.21,0.02l0,0c-0.07,0.01-0.14,0.01-0.21,0.02v0l-0.22,0.02v0l-0.21,0.01l0,0c-0.07,0-0.14,0.01-0.22,0.01v0   l-0.22,0.01l0,0l-0.21,0.01l0,0l-0.22,0.01l0,0l-0.22,0l0,0h-0.22h-13.81c-6.47-0.01-9.33-3.09-5.04-10.52l0.08-0.14l0.27-0.46   l0.22-0.38l0.37-0.63l0.4-0.69l0.01-0.02l0.47-0.82l0.35-0.6l0.14-0.24l0.45-0.78l0.31-0.55l0.09-0.16l0.39-0.67l0.43-0.75   l0.05-0.09l0.53-0.92l0.23-0.4l0.18-0.31l0.31-0.53l1.1-1.9l0.15-0.26l0.26-0.45l0.22-0.39l1.07-1.85l0.18-0.31l0.34-0.59   l0.14-0.24l1.67-2.9l0.06-0.1l3.74-6.48l6.27-10.86l0,0l16.67-28.87l8.58,14.86c7.91,13.69,8.08,14-0.31,28.54l-0.16,0.28   l-0.41,0.72l-1.59,2.76l-0.2,0.35l-0.4,0.69l-0.2,0.34l-0.2,0.35l-0.2,0.34l-0.2,0.34l-0.2,0.34l-1.19,2.07l-0.2,0.34l-0.2,0.35   l-0.2,0.34l-1.19,2.07l-0.2,0.35l-0.2,0.34l-0.2,0.34l-1.19,2.07L230.73,77.82L230.73,77.82z M227.6,83.23l-1.58,2.74 M229.8,79.42   l0.04-0.07"/>
</g>
</svg>